# xmcd
#
# Track frame offsets:
#	150
#	20617
#	43355
#	59417
#	83002
#	101317
#	121820
#	140427
#	164565
#	184007
#	207790
#
# Disc length: 3040 seconds
#
# Revision: 1
# Processed by: cddbd v1.5.1PL0 Copyright (c) Steve Scherf et al.
# Submitted via: audiograbber 1.83.01
#
DISCID=930bde0b
DTITLE=Elizabeth Lee - Milagro
DYEAR=1997
DGENRE=Blues
TTITLE0=Backseat Driver
TTITLE1=Try a little bit harder
TTITLE2=When will it come to me
TTITLE3=Miracle
TTITLE4=You oughta know them
TTITLE5=Better than the last Time
TTITLE6=Dont mind if I do
TTITLE7=Clear Picture
TTITLE8=Moving Pictures
TTITLE9=These Kids today
TTITLE10=Early Bird Cafe
EXTD=
EXTT0=
EXTT1=
EXTT2=
EXTT3=
EXTT4=
EXTT5=
EXTT6=
EXTT7=
EXTT8=
EXTT9=
EXTT10=
PLAYORDER=
